<svg height="48" viewBox="0 0 48 48" width="48" xmlns="http://www.w3.org/2000/svg"><g fill="none"><circle cx="24" cy="24" fill="#202327" r="24"/><g fill="#fff" transform="translate(12.6 12.5)"><path d="m1.10769231 23.5384615c-.62307692 0-1.10769231-4.776923-1.10769231-4.776923 0-.4153847.48461539-.6923077 1.10769231-.6923077s1.10769231.3461538 1.10769231.6923077c-.06923077 0-.55384616 4.776923-1.10769231 4.776923z"/><path d="m22.0846154 5.19230769c1.5230769-.83076923 2.8384615-2.97692307 2.6307692-4.01538461 0-.13846154-.1384615-.27692308-.2769231-.34615385-.2076923-.06923077-.4153846 0-.5538461.13846154-1.6615385 1.31538461-3.6 2.21538461-5.6769231 2.7-2.1461538.62307692-7.8923077 1.24615385-8.93076922 1.45384615-2.83846154.55384616-5.12307693 2.4923077-6.16153846 5.19230768-.62307693 1.7307692-.48461539 3.8076923-.48461539 5.5384616-.06923077 1.2461538 0 2.4923076.13846154 3.7384615v.0692308.0692307.0692308l.06923077.0692308c.20769231.1384615.41538461.1384615.62307692 0 .06923077-.0692308.13846154-.0692308.13846154-.1384616.34615385-.4153846.55384615-1.2461538.9-1.8692307.83076923-1.3846154 2.28461538-1.3846154 4.01538462-.6923077.27692307.1384615.62307692.2076923.9.276923h.06923076c.62307692.2076924 1.31538462.3461539 1.93846152.3461539 2.2846154 0 4.3615385-1.4538462 5.1923077-3.6.3461539-.7615385 1.1076923-3.2538462 1.3846154-3.8769231.0692308-.1384615.1384615-.2076923.2769231-.2769231.4846154-.1384615.8307692-.27692304.9692307-.27692304 1.8-.69230769 3.323077-2.00769231 4.223077-3.66923077.3461538-.69230769.6230769-1.45384615.7615384-2.28461538 0-.06923077-.0692307-.13846154-.1384615-.06923077-.6923077.69230769-1.5230769 1.17692308-2.4230769 1.38461538.3461538.13846154.3461538.13846154.4153846.06923077zm-6.5076923 8.37692311c-.7615385 2.1461538-3.1153846 3.2538461-5.2615385 2.5615384-1.66153845-.5538461-2.76923075-2.0076923-2.76923075-3.7384615 0-.0692308.06923077-.1384615.06923077-.1384615.48461538-.2076924.96923076-.3461539 1.45384615-.4846154.06923077 0 .13846154 0 .13846154.0692307-.13846154 1.3846154.76153846 2.5615385 2.14615389 2.7692308h.1384615c.0692308 0 .0692308 0 .1384615-.0692308.0692308-.0692307 0-.0692307-.0692307-.1384615-.5538462-.4846154-.5538462-1.3153846-.0692308-1.8s1.3153846-.5538462 1.8-.0692308c.2076923.2076923.3461538.4846154.4153846.8307693 0 .0692307 0 .0692307.0692308.0692307.0692307 0 .0692307 0 .0692307-.0692307.0692308-.1384616.1384616-.2769231.2076924-.4153847.2076923-.6230769.2076923-1.3153846-.1384616-1.9384615 0-.0692308 0-.1384615.0692308-.1384615.5538461-.0692308 1.0384615-.1384616 1.4538461-.2769231.0692308 0 .1384616 0 .1384616.0692308.3461538 1.0384615.3461538 2.0076923 0 2.9076923z"/></g></g></svg>